
      <svg xmlns="http://www.w3.org/2000/svg" version="1.1" width="2000" height="1000" style="display: block;"><polygon stroke-linejoin="round" stroke-miterlimit="1" stroke-width="1" points="2316.827392578125,935.2791748046875 2162.002197265625,1085.0693359375 2270.4635009765625,1102.8529052734375" style="fill:#871845;stroke:#871845;"></polygon><polygon stroke-linejoin="round" stroke-miterlimit="1" stroke-width="1" points="2016.4004516601562,949.6717834472656 2162.002197265625,1085.0693359375 2316.827392578125,935.2791748046875" style="fill:#861745;stroke:#861745;"></polygon><polygon stroke-linejoin="round" stroke-miterlimit="1" stroke-width="1" points="2117.5338134765625,789.2259521484375 2016.4004516601562,949.6717834472656 2316.827392578125,935.2791748046875" style="fill:#8b1a45;stroke:#8b1a45;"></polygon><polygon stroke-linejoin="round" stroke-miterlimit="1" stroke-width="1" points="1930.3760986328125,797.8798828125 2016.4004516601562,949.6717834472656 2117.5338134765625,789.2259521484375" style="fill:#8f1c45;stroke:#8f1c45;"></polygon><polygon stroke-linejoin="round" stroke-miterlimit="1" stroke-width="1" points="2294.92529296875,664.9936828613281 1930.3760986328125,797.8798828125 2117.5338134765625,789.2259521484375" style="fill:#7a1145;stroke:#7a1145;"></polygon><polygon stroke-linejoin="round" stroke-miterlimit="1" stroke-width="1" points="1947.6234741210938,635.0012969970703 1930.3760986328125,797.8798828125 2294.92529296875,664.9936828613281" style="fill:#921e45;stroke:#921e45;"></polygon><polygon stroke-linejoin="round" stroke-miterlimit="1" stroke-width="1" points="2319.9832763671875,490.56761741638184 1947.6234741210938,635.0012969970703 2294.92529296875,664.9936828613281" style="fill:#8f1c45;stroke:#8f1c45;"></polygon><polygon stroke-linejoin="round" stroke-miterlimit="1" stroke-width="1" points="2139.0440673828125,495.62369537353516 1947.6234741210938,635.0012969970703 2319.9832763671875,490.56761741638184" style="fill:#5e0245;stroke:#5e0245;"></polygon><polygon stroke-linejoin="round" stroke-miterlimit="1" stroke-width="1" points="2104.331787109375,336.7341766357422 2139.0440673828125,495.62369537353516 2319.9832763671875,490.56761741638184" style="fill:#720d45;stroke:#720d45;"></polygon><polygon stroke-linejoin="round" stroke-miterlimit="1" stroke-width="1" points="2162.065185546875,350.89573669433594 2139.0440673828125,495.62369537353516 2104.331787109375,336.7341766357422" style="fill:#5b0045;stroke:#5b0045;"></polygon><polygon stroke-linejoin="round" stroke-miterlimit="1" stroke-width="1" points="2276.818603515625,208.57196044921875 2162.065185546875,350.89573669433594 2104.331787109375,336.7341766357422" style="fill:#5b0045;stroke:#5b0045;"></polygon><polygon stroke-linejoin="round" stroke-miterlimit="1" stroke-width="1" points="2028.0386962890625,186.06439208984375 2162.065185546875,350.89573669433594 2276.818603515625,208.57196044921875" style="fill:#8c1b45;stroke:#8c1b45;"></polygon><polygon stroke-linejoin="round" stroke-miterlimit="1" stroke-width="1" points="2276.67333984375,35.423095703125 2028.0386962890625,186.06439208984375 2276.818603515625,208.57196044921875" style="fill:#8d1b45;stroke:#8d1b45;"></polygon><polygon stroke-linejoin="round" stroke-miterlimit="1" stroke-width="1" points="2169.9512939453125,52.284423828125 2028.0386962890625,186.06439208984375 2276.67333984375,35.423095703125" style="fill:#811545;stroke:#811545;"></polygon><polygon stroke-linejoin="round" stroke-miterlimit="1" stroke-width="1" points="2162.796142578125,-90.4100341796875 2169.9512939453125,52.284423828125 2276.67333984375,35.423095703125" style="fill:#7f1445;stroke:#7f1445;"></polygon><polygon stroke-linejoin="round" stroke-miterlimit="1" stroke-width="1" points="2169.997802734375,-114.77978515625 2169.9512939453125,52.284423828125 2162.796142578125,-90.4100341796875" style="fill:#5b0045;stroke:#5b0045;"></polygon><polygon stroke-linejoin="round" stroke-miterlimit="1" stroke-width="1" points="2016.4004516601562,949.6717834472656 1781.432861328125,1090.7026977539062 2162.002197265625,1085.0693359375" style="fill:#8d1b45;stroke:#8d1b45;"></polygon><polygon stroke-linejoin="round" stroke-miterlimit="1" stroke-width="1" points="1841.4050903320312,954.8018188476562 1781.432861328125,1090.7026977539062 2016.4004516601562,949.6717834472656" style="fill:#6a0845;stroke:#6a0845;"></polygon><polygon stroke-linejoin="round" stroke-miterlimit="1" stroke-width="1" points="1930.3760986328125,797.8798828125 1841.4050903320312,954.8018188476562 2016.4004516601562,949.6717834472656" style="fill:#911d45;stroke:#911d45;"></polygon><polygon stroke-linejoin="round" stroke-miterlimit="1" stroke-width="1" points="1996.4446411132812,789.1579895019531 1841.4050903320312,954.8018188476562 1930.3760986328125,797.8798828125" style="fill:#5b0045;stroke:#5b0045;"></polygon><polygon stroke-linejoin="round" stroke-miterlimit="1" stroke-width="1" points="1947.6234741210938,635.0012969970703 1996.4446411132812,789.1579895019531 1930.3760986328125,797.8798828125" style="fill:#5b0045;stroke:#5b0045;"></polygon><polygon stroke-linejoin="round" stroke-miterlimit="1" stroke-width="1" points="1902.0430908203125,649.4328155517578 1996.4446411132812,789.1579895019531 1947.6234741210938,635.0012969970703" style="fill:#5f0345;stroke:#5f0345;"></polygon><polygon stroke-linejoin="round" stroke-miterlimit="1" stroke-width="1" points="2139.0440673828125,495.62369537353516 1902.0430908203125,649.4328155517578 1947.6234741210938,635.0012969970703" style="fill:#5b0045;stroke:#5b0045;"></polygon><polygon stroke-linejoin="round" stroke-miterlimit="1" stroke-width="1" points="2015.0350341796875,486.22598457336426 1902.0430908203125,649.4328155517578 2139.0440673828125,495.62369537353516" style="fill:#c03745;stroke:#c03745;"></polygon><polygon stroke-linejoin="round" stroke-miterlimit="1" stroke-width="1" points="2162.065185546875,350.89573669433594 2015.0350341796875,486.22598457336426 2139.0440673828125,495.62369537353516" style="fill:#b63145;stroke:#b63145;"></polygon><polygon stroke-linejoin="round" stroke-miterlimit="1" stroke-width="1" points="1788.4032592773438,340.2578430175781 2015.0350341796875,486.22598457336426 2162.065185546875,350.89573669433594" style="fill:#992145;stroke:#992145;"></polygon><polygon stroke-linejoin="round" stroke-miterlimit="1" stroke-width="1" points="2028.0386962890625,186.06439208984375 1788.4032592773438,340.2578430175781 2162.065185546875,350.89573669433594" style="fill:#9c2345;stroke:#9c2345;"></polygon><polygon stroke-linejoin="round" stroke-miterlimit="1" stroke-width="1" points="1928.2550048828125,200.36871337890625 1788.4032592773438,340.2578430175781 2028.0386962890625,186.06439208984375" style="fill:#9d2345;stroke:#9d2345;"></polygon><polygon stroke-linejoin="round" stroke-miterlimit="1" stroke-width="1" points="2169.9512939453125,52.284423828125 1928.2550048828125,200.36871337890625 2028.0386962890625,186.06439208984375" style="fill:#931e45;stroke:#931e45;"></polygon><polygon stroke-linejoin="round" stroke-miterlimit="1" stroke-width="1" points="1836.3402709960938,35.12481689453125 1928.2550048828125,200.36871337890625 2169.9512939453125,52.284423828125" style="fill:#941f45;stroke:#941f45;"></polygon><polygon stroke-linejoin="round" stroke-miterlimit="1" stroke-width="1" points="2169.997802734375,-114.77978515625 1836.3402709960938,35.12481689453125 2169.9512939453125,52.284423828125" style="fill:#901d45;stroke:#901d45;"></polygon><polygon stroke-linejoin="round" stroke-miterlimit="1" stroke-width="1" points="1888.2244873046875,-86.8861083984375 1836.3402709960938,35.12481689453125 2169.997802734375,-114.77978515625" style="fill:#982145;stroke:#982145;"></polygon><polygon stroke-linejoin="round" stroke-miterlimit="1" stroke-width="1" points="1841.4050903320312,954.8018188476562 1735.1805419921875,1085.3079833984375 1781.432861328125,1090.7026977539062" style="fill:#5b0045;stroke:#5b0045;"></polygon><polygon stroke-linejoin="round" stroke-miterlimit="1" stroke-width="1" points="1732.366943359375,964.4864501953125 1735.1805419921875,1085.3079833984375 1841.4050903320312,954.8018188476562" style="fill:#a52845;stroke:#a52845;"></polygon><polygon stroke-linejoin="round" stroke-miterlimit="1" stroke-width="1" points="1996.4446411132812,789.1579895019531 1732.366943359375,964.4864501953125 1841.4050903320312,954.8018188476562" style="fill:#ad2c45;stroke:#ad2c45;"></polygon><polygon stroke-linejoin="round" stroke-miterlimit="1" stroke-width="1" points="1719.2863159179688,785.0287475585938 1732.366943359375,964.4864501953125 1996.4446411132812,789.1579895019531" style="fill:#a92a45;stroke:#a92a45;"></polygon><polygon stroke-linejoin="round" stroke-miterlimit="1" stroke-width="1" points="1902.0430908203125,649.4328155517578 1719.2863159179688,785.0287475585938 1996.4446411132812,789.1579895019531" style="fill:#982145;stroke:#982145;"></polygon><polygon stroke-linejoin="round" stroke-miterlimit="1" stroke-width="1" points="1767.6564331054688,663.7041931152344 1719.2863159179688,785.0287475585938 1902.0430908203125,649.4328155517578" style="fill:#c03645;stroke:#c03645;"></polygon><polygon stroke-linejoin="round" stroke-miterlimit="1" stroke-width="1" points="2015.0350341796875,486.22598457336426 1767.6564331054688,663.7041931152344 1902.0430908203125,649.4328155517578" style="fill:#d34045;stroke:#d34045;"></polygon><polygon stroke-linejoin="round" stroke-miterlimit="1" stroke-width="1" points="1731.0166625976562,503.435001373291 1767.6564331054688,663.7041931152344 2015.0350341796875,486.22598457336426" style="fill:#8c1b45;stroke:#8c1b45;"></polygon><polygon stroke-linejoin="round" stroke-miterlimit="1" stroke-width="1" points="1788.4032592773438,340.2578430175781 1731.0166625976562,503.435001373291 2015.0350341796875,486.22598457336426" style="fill:#962045;stroke:#962045;"></polygon><polygon stroke-linejoin="round" stroke-miterlimit="1" stroke-width="1" points="1860.2261352539062,346.9347229003906 1731.0166625976562,503.435001373291 1788.4032592773438,340.2578430175781" style="fill:#5b0045;stroke:#5b0045;"></polygon><polygon stroke-linejoin="round" stroke-miterlimit="1" stroke-width="1" points="1928.2550048828125,200.36871337890625 1860.2261352539062,346.9347229003906 1788.4032592773438,340.2578430175781" style="fill:#5b0045;stroke:#5b0045;"></polygon><polygon stroke-linejoin="round" stroke-miterlimit="1" stroke-width="1" points="1853.2352294921875,193.62982177734375 1860.2261352539062,346.9347229003906 1928.2550048828125,200.36871337890625" style="fill:#9c2345;stroke:#9c2345;"></polygon><polygon stroke-linejoin="round" stroke-miterlimit="1" stroke-width="1" points="1836.3402709960938,35.12481689453125 1853.2352294921875,193.62982177734375 1928.2550048828125,200.36871337890625" style="fill:#9f2445;stroke:#9f2445;"></polygon><polygon stroke-linejoin="round" stroke-miterlimit="1" stroke-width="1" points="1795.41162109375,64.98538208007812 1853.2352294921875,193.62982177734375 1836.3402709960938,35.12481689453125" style="fill:#d84345;stroke:#d84345;"></polygon><polygon stroke-linejoin="round" stroke-miterlimit="1" stroke-width="1" points="1888.2244873046875,-86.8861083984375 1795.41162109375,64.98538208007812 1836.3402709960938,35.12481689453125" style="fill:#ee4f45;stroke:#ee4f45;"></polygon><polygon stroke-linejoin="round" stroke-miterlimit="1" stroke-width="1" points="1861.2373657226562,-85.96771240234375 1795.41162109375,64.98538208007812 1888.2244873046875,-86.8861083984375" style="fill:#9b2245;stroke:#9b2245;"></polygon><polygon stroke-linejoin="round" stroke-miterlimit="1" stroke-width="1" points="1732.366943359375,964.4864501953125 1488.53271484375,1102.4699096679688 1735.1805419921875,1085.3079833984375" style="fill:#a92a45;stroke:#a92a45;"></polygon><polygon stroke-linejoin="round" stroke-miterlimit="1" stroke-width="1" points="1516.0277099609375,937.2397766113281 1488.53271484375,1102.4699096679688 1732.366943359375,964.4864501953125" style="fill:#7e1345;stroke:#7e1345;"></polygon><polygon stroke-linejoin="round" stroke-miterlimit="1" stroke-width="1" points="1719.2863159179688,785.0287475585938 1516.0277099609375,937.2397766113281 1732.366943359375,964.4864501953125" style="fill:#9f2445;stroke:#9f2445;"></polygon><polygon stroke-linejoin="round" stroke-miterlimit="1" stroke-width="1" points="1716.0308227539062,786.3153076171875 1516.0277099609375,937.2397766113281 1719.2863159179688,785.0287475585938" style="fill:#5b0045;stroke:#5b0045;"></polygon><polygon stroke-linejoin="round" stroke-miterlimit="1" stroke-width="1" points="1767.6564331054688,663.7041931152344 1716.0308227539062,786.3153076171875 1719.2863159179688,785.0287475585938" style="fill:#5b0045;stroke:#5b0045;"></polygon><polygon stroke-linejoin="round" stroke-miterlimit="1" stroke-width="1" points="1565.3511962890625,654.763427734375 1716.0308227539062,786.3153076171875 1767.6564331054688,663.7041931152344" style="fill:#b53045;stroke:#b53045;"></polygon><polygon stroke-linejoin="round" stroke-miterlimit="1" stroke-width="1" points="1731.0166625976562,503.435001373291 1565.3511962890625,654.763427734375 1767.6564331054688,663.7041931152344" style="fill:#9e2445;stroke:#9e2445;"></polygon><polygon stroke-linejoin="round" stroke-miterlimit="1" stroke-width="1" points="1490.3517761230469,487.9676113128662 1565.3511962890625,654.763427734375 1731.0166625976562,503.435001373291" style="fill:#b53145;stroke:#b53145;"></polygon><polygon stroke-linejoin="round" stroke-miterlimit="1" stroke-width="1" points="1860.2261352539062,346.9347229003906 1490.3517761230469,487.9676113128662 1731.0166625976562,503.435001373291" style="fill:#b83245;stroke:#b83245;"></polygon><polygon stroke-linejoin="round" stroke-miterlimit="1" stroke-width="1" points="1705.9745483398438,359.6290740966797 1490.3517761230469,487.9676113128662 1860.2261352539062,346.9347229003906" style="fill:#941f45;stroke:#941f45;"></polygon><polygon stroke-linejoin="round" stroke-miterlimit="1" stroke-width="1" points="1853.2352294921875,193.62982177734375 1705.9745483398438,359.6290740966797 1860.2261352539062,346.9347229003906" style="fill:#962045;stroke:#962045;"></polygon><polygon stroke-linejoin="round" stroke-miterlimit="1" stroke-width="1" points="1681.2655639648438,205.98675537109375 1705.9745483398438,359.6290740966797 1853.2352294921875,193.62982177734375" style="fill:#a32745;stroke:#a32745;"></polygon><polygon stroke-linejoin="round" stroke-miterlimit="1" stroke-width="1" points="1795.41162109375,64.98538208007812 1681.2655639648438,205.98675537109375 1853.2352294921875,193.62982177734375" style="fill:#a02545;stroke:#a02545;"></polygon><polygon stroke-linejoin="round" stroke-miterlimit="1" stroke-width="1" points="1719.3549194335938,64.77114868164062 1681.2655639648438,205.98675537109375 1795.41162109375,64.98538208007812" style="fill:#a92a45;stroke:#a92a45;"></polygon><polygon stroke-linejoin="round" stroke-miterlimit="1" stroke-width="1" points="1861.2373657226562,-85.96771240234375 1719.3549194335938,64.77114868164062 1795.41162109375,64.98538208007812" style="fill:#a72945;stroke:#a72945;"></polygon><polygon stroke-linejoin="round" stroke-miterlimit="1" stroke-width="1" points="1480.0011291503906,-85.09515380859375 1719.3549194335938,64.77114868164062 1861.2373657226562,-85.96771240234375" style="fill:#b32f45;stroke:#b32f45;"></polygon><polygon stroke-linejoin="round" stroke-miterlimit="1" stroke-width="1" points="1516.0277099609375,937.2397766113281 1547.8530883789062,1085.2473754882812 1488.53271484375,1102.4699096679688" style="fill:#5b0045;stroke:#5b0045;"></polygon><polygon stroke-linejoin="round" stroke-miterlimit="1" stroke-width="1" points="1421.355712890625,948.9336853027344 1547.8530883789062,1085.2473754882812 1516.0277099609375,937.2397766113281" style="fill:#851745;stroke:#851745;"></polygon><polygon stroke-linejoin="round" stroke-miterlimit="1" stroke-width="1" points="1716.0308227539062,786.3153076171875 1421.355712890625,948.9336853027344 1516.0277099609375,937.2397766113281" style="fill:#8b1a45;stroke:#8b1a45;"></polygon><polygon stroke-linejoin="round" stroke-miterlimit="1" stroke-width="1" points="1460.5794067382812,792.5851745605469 1421.355712890625,948.9336853027344 1716.0308227539062,786.3153076171875" style="fill:#b63145;stroke:#b63145;"></polygon><polygon stroke-linejoin="round" stroke-miterlimit="1" stroke-width="1" points="1565.3511962890625,654.763427734375 1460.5794067382812,792.5851745605469 1716.0308227539062,786.3153076171875" style="fill:#bd3545;stroke:#bd3545;"></polygon><polygon stroke-linejoin="round" stroke-miterlimit="1" stroke-width="1" points="1536.8377685546875,663.1776885986328 1460.5794067382812,792.5851745605469 1565.3511962890625,654.763427734375" style="fill:#5b0045;stroke:#5b0045;"></polygon><polygon stroke-linejoin="round" stroke-miterlimit="1" stroke-width="1" points="1490.3517761230469,487.9676113128662 1536.8377685546875,663.1776885986328 1565.3511962890625,654.763427734375" style="fill:#8a1945;stroke:#8a1945;"></polygon><polygon stroke-linejoin="round" stroke-miterlimit="1" stroke-width="1" points="1422.604248046875,503.878080368042 1536.8377685546875,663.1776885986328 1490.3517761230469,487.9676113128662" style="fill:#a82a45;stroke:#a82a45;"></polygon><polygon stroke-linejoin="round" stroke-miterlimit="1" stroke-width="1" points="1705.9745483398438,359.6290740966797 1422.604248046875,503.878080368042 1490.3517761230469,487.9676113128662" style="fill:#5b0045;stroke:#5b0045;"></polygon><polygon stroke-linejoin="round" stroke-miterlimit="1" stroke-width="1" points="1330.5058898925781,340.90550231933594 1422.604248046875,503.878080368042 1705.9745483398438,359.6290740966797" style="fill:#c83b45;stroke:#c83b45;"></polygon><polygon stroke-linejoin="round" stroke-miterlimit="1" stroke-width="1" points="1681.2655639648438,205.98675537109375 1330.5058898925781,340.90550231933594 1705.9745483398438,359.6290740966797" style="fill:#bc3445;stroke:#bc3445;"></polygon><polygon stroke-linejoin="round" stroke-miterlimit="1" stroke-width="1" points="1371.6383972167969,214.617431640625 1330.5058898925781,340.90550231933594 1681.2655639648438,205.98675537109375" style="fill:#d94345;stroke:#d94345;"></polygon><polygon stroke-linejoin="round" stroke-miterlimit="1" stroke-width="1" points="1719.3549194335938,64.77114868164062 1371.6383972167969,214.617431640625 1681.2655639648438,205.98675537109375" style="fill:#ba3345;stroke:#ba3345;"></polygon><polygon stroke-linejoin="round" stroke-miterlimit="1" stroke-width="1" points="1466.944091796875,39.21771240234375 1371.6383972167969,214.617431640625 1719.3549194335938,64.77114868164062" style="fill:#c23845;stroke:#c23845;"></polygon><polygon stroke-linejoin="round" stroke-miterlimit="1" stroke-width="1" points="1480.0011291503906,-85.09515380859375 1466.944091796875,39.21771240234375 1719.3549194335938,64.77114868164062" style="fill:#b43045;stroke:#b43045;"></polygon><polygon stroke-linejoin="round" stroke-miterlimit="1" stroke-width="1" points="1490.8552551269531,-112.69683837890625 1466.944091796875,39.21771240234375 1480.0011291503906,-85.09515380859375" style="fill:#5b0045;stroke:#5b0045;"></polygon><polygon stroke-linejoin="round" stroke-miterlimit="1" stroke-width="1" points="1421.355712890625,948.9336853027344 1304.9407653808594,1093.4118041992188 1547.8530883789062,1085.2473754882812" style="fill:#831645;stroke:#831645;"></polygon><polygon stroke-linejoin="round" stroke-miterlimit="1" stroke-width="1" points="1390.7048950195312,964.981689453125 1304.9407653808594,1093.4118041992188 1421.355712890625,948.9336853027344" style="fill:#ffa245;stroke:#ffa245;"></polygon><polygon stroke-linejoin="round" stroke-miterlimit="1" stroke-width="1" points="1460.5794067382812,792.5851745605469 1390.7048950195312,964.981689453125 1421.355712890625,948.9336853027344" style="fill:#ff7545;stroke:#ff7545;"></polygon><polygon stroke-linejoin="round" stroke-miterlimit="1" stroke-width="1" points="1296.7646179199219,791.3041381835938 1390.7048950195312,964.981689453125 1460.5794067382812,792.5851745605469" style="fill:#901c45;stroke:#901c45;"></polygon><polygon stroke-linejoin="round" stroke-miterlimit="1" stroke-width="1" points="1536.8377685546875,663.1776885986328 1296.7646179199219,791.3041381835938 1460.5794067382812,792.5851745605469" style="fill:#9c2345;stroke:#9c2345;"></polygon><polygon stroke-linejoin="round" stroke-miterlimit="1" stroke-width="1" points="1301.5391540527344,635.5329284667969 1296.7646179199219,791.3041381835938 1536.8377685546875,663.1776885986328" style="fill:#d74245;stroke:#d74245;"></polygon><polygon stroke-linejoin="round" stroke-miterlimit="1" stroke-width="1" points="1422.604248046875,503.878080368042 1301.5391540527344,635.5329284667969 1536.8377685546875,663.1776885986328" style="fill:#c03645;stroke:#c03645;"></polygon><polygon stroke-linejoin="round" stroke-miterlimit="1" stroke-width="1" points="1398.0389404296875,490.6250514984131 1301.5391540527344,635.5329284667969 1422.604248046875,503.878080368042" style="fill:#a82945;stroke:#a82945;"></polygon><polygon stroke-linejoin="round" stroke-miterlimit="1" stroke-width="1" points="1330.5058898925781,340.90550231933594 1398.0389404296875,490.6250514984131 1422.604248046875,503.878080368042" style="fill:#bb3345;stroke:#bb3345;"></polygon><polygon stroke-linejoin="round" stroke-miterlimit="1" stroke-width="1" points="1419.0614929199219,358.2769317626953 1398.0389404296875,490.6250514984131 1330.5058898925781,340.90550231933594" style="fill:#5b0045;stroke:#5b0045;"></polygon><polygon stroke-linejoin="round" stroke-miterlimit="1" stroke-width="1" points="1371.6383972167969,214.617431640625 1419.0614929199219,358.2769317626953 1330.5058898925781,340.90550231933594" style="fill:#5b0045;stroke:#5b0045;"></polygon><polygon stroke-linejoin="round" stroke-miterlimit="1" stroke-width="1" points="1415.9649963378906,196.77377319335938 1419.0614929199219,358.2769317626953 1371.6383972167969,214.617431640625" style="fill:#5b0045;stroke:#5b0045;"></polygon><polygon stroke-linejoin="round" stroke-miterlimit="1" stroke-width="1" points="1466.944091796875,39.21771240234375 1415.9649963378906,196.77377319335938 1371.6383972167969,214.617431640625" style="fill:#5b0045;stroke:#5b0045;"></polygon><polygon stroke-linejoin="round" stroke-miterlimit="1" stroke-width="1" points="1393.6128845214844,61.403167724609375 1415.9649963378906,196.77377319335938 1466.944091796875,39.21771240234375" style="fill:#ab2b45;stroke:#ab2b45;"></polygon><polygon stroke-linejoin="round" stroke-miterlimit="1" stroke-width="1" points="1490.8552551269531,-112.69683837890625 1393.6128845214844,61.403167724609375 1466.944091796875,39.21771240234375" style="fill:#a32745;stroke:#a32745;"></polygon><polygon stroke-linejoin="round" stroke-miterlimit="1" stroke-width="1" points="1366.5904541015625,-87.1822509765625 1393.6128845214844,61.403167724609375 1490.8552551269531,-112.69683837890625" style="fill:#cc3d45;stroke:#cc3d45;"></polygon><polygon stroke-linejoin="round" stroke-miterlimit="1" stroke-width="1" points="1390.7048950195312,964.981689453125 1179.0655517578125,1108.7564086914062 1304.9407653808594,1093.4118041992188" style="fill:#a72945;stroke:#a72945;"></polygon><polygon stroke-linejoin="round" stroke-miterlimit="1" stroke-width="1" points="1030.1852188110352,962.3878173828125 1179.0655517578125,1108.7564086914062 1390.7048950195312,964.981689453125" style="fill:#bb3345;stroke:#bb3345;"></polygon><polygon stroke-linejoin="round" stroke-miterlimit="1" stroke-width="1" points="1296.7646179199219,791.3041381835938 1030.1852188110352,962.3878173828125 1390.7048950195312,964.981689453125" style="fill:#901c45;stroke:#901c45;"></polygon><polygon stroke-linejoin="round" stroke-miterlimit="1" stroke-width="1" points="1182.387954711914,794.10498046875 1030.1852188110352,962.3878173828125 1296.7646179199219,791.3041381835938" style="fill:#e64a45;stroke:#e64a45;"></polygon><polygon stroke-linejoin="round" stroke-miterlimit="1" stroke-width="1" points="1301.5391540527344,635.5329284667969 1182.387954711914,794.10498046875 1296.7646179199219,791.3041381835938" style="fill:#ee4f45;stroke:#ee4f45;"></polygon><polygon stroke-linejoin="round" stroke-miterlimit="1" stroke-width="1" points="1032.8826599121094,660.8475952148438 1182.387954711914,794.10498046875 1301.5391540527344,635.5329284667969" style="fill:#b73245;stroke:#b73245;"></polygon><polygon stroke-linejoin="round" stroke-miterlimit="1" stroke-width="1" points="1398.0389404296875,490.6250514984131 1032.8826599121094,660.8475952148438 1301.5391540527344,635.5329284667969" style="fill:#a52845;stroke:#a52845;"></polygon><polygon stroke-linejoin="round" stroke-miterlimit="1" stroke-width="1" points="1246.246078491211,495.1822118759155 1032.8826599121094,660.8475952148438 1398.0389404296875,490.6250514984131" style="fill:#ff5f45;stroke:#ff5f45;"></polygon><polygon stroke-linejoin="round" stroke-miterlimit="1" stroke-width="1" points="1419.0614929199219,358.2769317626953 1246.246078491211,495.1822118759155 1398.0389404296875,490.6250514984131" style="fill:#ff5c45;stroke:#ff5c45;"></polygon><polygon stroke-linejoin="round" stroke-miterlimit="1" stroke-width="1" points="1059.5435180664062,346.50762939453125 1246.246078491211,495.1822118759155 1419.0614929199219,358.2769317626953" style="fill:#ff6a45;stroke:#ff6a45;"></polygon><polygon stroke-linejoin="round" stroke-miterlimit="1" stroke-width="1" points="1415.9649963378906,196.77377319335938 1059.5435180664062,346.50762939453125 1419.0614929199219,358.2769317626953" style="fill:#ff6745;stroke:#ff6745;"></polygon><polygon stroke-linejoin="round" stroke-miterlimit="1" stroke-width="1" points="1069.9265594482422,199.66876220703125 1059.5435180664062,346.50762939453125 1415.9649963378906,196.77377319335938" style="fill:#ffaa45;stroke:#ffaa45;"></polygon><polygon stroke-linejoin="round" stroke-miterlimit="1" stroke-width="1" points="1393.6128845214844,61.403167724609375 1069.9265594482422,199.66876220703125 1415.9649963378906,196.77377319335938" style="fill:#ff6745;stroke:#ff6745;"></polygon><polygon stroke-linejoin="round" stroke-miterlimit="1" stroke-width="1" points="1250.9954833984375,47.5860595703125 1069.9265594482422,199.66876220703125 1393.6128845214844,61.403167724609375" style="fill:#ff6645;stroke:#ff6645;"></polygon><polygon stroke-linejoin="round" stroke-miterlimit="1" stroke-width="1" points="1366.5904541015625,-87.1822509765625 1250.9954833984375,47.5860595703125 1393.6128845214844,61.403167724609375" style="fill:#ec4e45;stroke:#ec4e45;"></polygon><polygon stroke-linejoin="round" stroke-miterlimit="1" stroke-width="1" points="1269.8828125,-88.0347900390625 1250.9954833984375,47.5860595703125 1366.5904541015625,-87.1822509765625" style="fill:#e84c45;stroke:#e84c45;"></polygon><polygon stroke-linejoin="round" stroke-miterlimit="1" stroke-width="1" points="1030.1852188110352,962.3878173828125 898.6531829833984,1114.9893798828125 1179.0655517578125,1108.7564086914062" style="fill:#b93245;stroke:#b93245;"></polygon><polygon stroke-linejoin="round" stroke-miterlimit="1" stroke-width="1" points="881.1122665405273,949.028076171875 898.6531829833984,1114.9893798828125 1030.1852188110352,962.3878173828125" style="fill:#ad2c45;stroke:#ad2c45;"></polygon><polygon stroke-linejoin="round" stroke-miterlimit="1" stroke-width="1" points="1182.387954711914,794.10498046875 881.1122665405273,949.028076171875 1030.1852188110352,962.3878173828125" style="fill:#9d2445;stroke:#9d2445;"></polygon><polygon stroke-linejoin="round" stroke-miterlimit="1" stroke-width="1" points="1090.6509552001953,785.0947265625 881.1122665405273,949.028076171875 1182.387954711914,794.10498046875" style="fill:#6a0845;stroke:#6a0845;"></polygon><polygon stroke-linejoin="round" stroke-miterlimit="1" stroke-width="1" points="1032.8826599121094,660.8475952148438 1090.6509552001953,785.0947265625 1182.387954711914,794.10498046875" style="fill:#d13f45;stroke:#d13f45;"></polygon><polygon stroke-linejoin="round" stroke-miterlimit="1" stroke-width="1" points="882.4282531738281,642.4367828369141 1090.6509552001953,785.0947265625 1032.8826599121094,660.8475952148438" style="fill:#bf3645;stroke:#bf3645;"></polygon><polygon stroke-linejoin="round" stroke-miterlimit="1" stroke-width="1" points="1246.246078491211,495.1822118759155 882.4282531738281,642.4367828369141 1032.8826599121094,660.8475952148438" style="fill:#ff6345;stroke:#ff6345;"></polygon><polygon stroke-linejoin="round" stroke-miterlimit="1" stroke-width="1" points="1068.7795486450195,513.3501615524292 882.4282531738281,642.4367828369141 1246.246078491211,495.1822118759155" style="fill:#d94345;stroke:#d94345;"></polygon><polygon stroke-linejoin="round" stroke-miterlimit="1" stroke-width="1" points="1059.5435180664062,346.50762939453125 1068.7795486450195,513.3501615524292 1246.246078491211,495.1822118759155" style="fill:#ff6b45;stroke:#ff6b45;"></polygon><polygon stroke-linejoin="round" stroke-miterlimit="1" stroke-width="1" points="1094.2354888916016,356.23289489746094 1068.7795486450195,513.3501615524292 1059.5435180664062,346.50762939453125" style="fill:#5b0045;stroke:#5b0045;"></polygon><polygon stroke-linejoin="round" stroke-miterlimit="1" stroke-width="1" points="1069.9265594482422,199.66876220703125 1094.2354888916016,356.23289489746094 1059.5435180664062,346.50762939453125" style="fill:#5b0045;stroke:#5b0045;"></polygon><polygon stroke-linejoin="round" stroke-miterlimit="1" stroke-width="1" points="1088.1295471191406,214.67755126953125 1094.2354888916016,356.23289489746094 1069.9265594482422,199.66876220703125" style="fill:#5b0045;stroke:#5b0045;"></polygon><polygon stroke-linejoin="round" stroke-miterlimit="1" stroke-width="1" points="1250.9954833984375,47.5860595703125 1088.1295471191406,214.67755126953125 1069.9265594482422,199.66876220703125" style="fill:#5b0045;stroke:#5b0045;"></polygon><polygon stroke-linejoin="round" stroke-miterlimit="1" stroke-width="1" points="1119.5327377319336,44.7083740234375 1088.1295471191406,214.67755126953125 1250.9954833984375,47.5860595703125" style="fill:#ff7245;stroke:#ff7245;"></polygon><polygon stroke-linejoin="round" stroke-miterlimit="1" stroke-width="1" points="1269.8828125,-88.0347900390625 1119.5327377319336,44.7083740234375 1250.9954833984375,47.5860595703125" style="fill:#fd5745;stroke:#fd5745;"></polygon><polygon stroke-linejoin="round" stroke-miterlimit="1" stroke-width="1" points="921.0577087402344,-114.63983154296875 1119.5327377319336,44.7083740234375 1269.8828125,-88.0347900390625" style="fill:#fd5745;stroke:#fd5745;"></polygon><polygon stroke-linejoin="round" stroke-miterlimit="1" stroke-width="1" points="881.1122665405273,949.028076171875 772.4202270507812,1114.4008178710938 898.6531829833984,1114.9893798828125" style="fill:#a02545;stroke:#a02545;"></polygon><polygon stroke-linejoin="round" stroke-miterlimit="1" stroke-width="1" points="819.9979858398438,963.839599609375 772.4202270507812,1114.4008178710938 881.1122665405273,949.028076171875" style="fill:#962045;stroke:#962045;"></polygon><polygon stroke-linejoin="round" stroke-miterlimit="1" stroke-width="1" points="1090.6509552001953,785.0947265625 819.9979858398438,963.839599609375 881.1122665405273,949.028076171875" style="fill:#7d1245;stroke:#7d1245;"></polygon><polygon stroke-linejoin="round" stroke-miterlimit="1" stroke-width="1" points="875.1285552978516,808.392822265625 819.9979858398438,963.839599609375 1090.6509552001953,785.0947265625" style="fill:#c93b45;stroke:#c93b45;"></polygon><polygon stroke-linejoin="round" stroke-miterlimit="1" stroke-width="1" points="882.4282531738281,642.4367828369141 875.1285552978516,808.392822265625 1090.6509552001953,785.0947265625" style="fill:#c93b45;stroke:#c93b45;"></polygon><polygon stroke-linejoin="round" stroke-miterlimit="1" stroke-width="1" points="751.3282623291016,638.1031188964844 875.1285552978516,808.392822265625 882.4282531738281,642.4367828369141" style="fill:#d24045;stroke:#d24045;"></polygon><polygon stroke-linejoin="round" stroke-miterlimit="1" stroke-width="1" points="1068.7795486450195,513.3501615524292 751.3282623291016,638.1031188964844 882.4282531738281,642.4367828369141" style="fill:#d34045;stroke:#d34045;"></polygon><polygon stroke-linejoin="round" stroke-miterlimit="1" stroke-width="1" points="933.6642074584961,500.2208028435707 751.3282623291016,638.1031188964844 1068.7795486450195,513.3501615524292" style="fill:#d84345;stroke:#d84345;"></polygon><polygon stroke-linejoin="round" stroke-miterlimit="1" stroke-width="1" points="1094.2354888916016,356.23289489746094 933.6642074584961,500.2208028435707 1068.7795486450195,513.3501615524292" style="fill:#ff6f45;stroke:#ff6f45;"></polygon><polygon stroke-linejoin="round" stroke-miterlimit="1" stroke-width="1" points="953.2353210449219,363.2627716064453 933.6642074584961,500.2208028435707 1094.2354888916016,356.23289489746094" style="fill:#ff7a45;stroke:#ff7a45;"></polygon><polygon stroke-linejoin="round" stroke-miterlimit="1" stroke-width="1" points="1088.1295471191406,214.67755126953125 953.2353210449219,363.2627716064453 1094.2354888916016,356.23289489746094" style="fill:#ff9e45;stroke:#ff9e45;"></polygon><polygon stroke-linejoin="round" stroke-miterlimit="1" stroke-width="1" points="895.7591323852539,213.13027954101562 953.2353210449219,363.2627716064453 1088.1295471191406,214.67755126953125" style="fill:#ffa545;stroke:#ffa545;"></polygon><polygon stroke-linejoin="round" stroke-miterlimit="1" stroke-width="1" points="1119.5327377319336,44.7083740234375 895.7591323852539,213.13027954101562 1088.1295471191406,214.67755126953125" style="fill:#ff8e45;stroke:#ff8e45;"></polygon><polygon stroke-linejoin="round" stroke-miterlimit="1" stroke-width="1" points="731.10791015625,40.61846923828125 895.7591323852539,213.13027954101562 1119.5327377319336,44.7083740234375" style="fill:#ff8645;stroke:#ff8645;"></polygon><polygon stroke-linejoin="round" stroke-miterlimit="1" stroke-width="1" points="921.0577087402344,-114.63983154296875 731.10791015625,40.61846923828125 1119.5327377319336,44.7083740234375" style="fill:#ff5c45;stroke:#ff5c45;"></polygon><polygon stroke-linejoin="round" stroke-miterlimit="1" stroke-width="1" points="889.1317596435547,-110.76861572265625 731.10791015625,40.61846923828125 921.0577087402344,-114.63983154296875" style="fill:#ffa145;stroke:#ffa145;"></polygon><polygon stroke-linejoin="round" stroke-miterlimit="1" stroke-width="1" points="819.9979858398438,963.839599609375 605.2484741210938,1111.7305297851562 772.4202270507812,1114.4008178710938" style="fill:#921e45;stroke:#921e45;"></polygon><polygon stroke-linejoin="round" stroke-miterlimit="1" stroke-width="1" points="618.2117004394531,958.7749633789062 605.2484741210938,1111.7305297851562 819.9979858398438,963.839599609375" style="fill:#ad2c45;stroke:#ad2c45;"></polygon><polygon stroke-linejoin="round" stroke-miterlimit="1" stroke-width="1" points="875.1285552978516,808.392822265625 618.2117004394531,958.7749633789062 819.9979858398438,963.839599609375" style="fill:#bc3445;stroke:#bc3445;"></polygon><polygon stroke-linejoin="round" stroke-miterlimit="1" stroke-width="1" points="741.9493713378906,790.2411499023438 618.2117004394531,958.7749633789062 875.1285552978516,808.392822265625" style="fill:#b32f45;stroke:#b32f45;"></polygon><polygon stroke-linejoin="round" stroke-miterlimit="1" stroke-width="1" points="751.3282623291016,638.1031188964844 741.9493713378906,790.2411499023438 875.1285552978516,808.392822265625" style="fill:#bb3345;stroke:#bb3345;"></polygon><polygon stroke-linejoin="round" stroke-miterlimit="1" stroke-width="1" points="804.7578430175781,635.8393402099609 741.9493713378906,790.2411499023438 751.3282623291016,638.1031188964844" style="fill:#5b0045;stroke:#5b0045;"></polygon><polygon stroke-linejoin="round" stroke-miterlimit="1" stroke-width="1" points="933.6642074584961,500.2208028435707 804.7578430175781,635.8393402099609 751.3282623291016,638.1031188964844" style="fill:#5b0045;stroke:#5b0045;"></polygon><polygon stroke-linejoin="round" stroke-miterlimit="1" stroke-width="1" points="818.9219055175781,506.5714020729065 804.7578430175781,635.8393402099609 933.6642074584961,500.2208028435707" style="fill:#f95545;stroke:#f95545;"></polygon><polygon stroke-linejoin="round" stroke-miterlimit="1" stroke-width="1" points="953.2353210449219,363.2627716064453 818.9219055175781,506.5714020729065 933.6642074584961,500.2208028435707" style="fill:#ff6545;stroke:#ff6545;"></polygon><polygon stroke-linejoin="round" stroke-miterlimit="1" stroke-width="1" points="734.260009765625,359.71177673339844 818.9219055175781,506.5714020729065 953.2353210449219,363.2627716064453" style="fill:#ff6c45;stroke:#ff6c45;"></polygon><polygon stroke-linejoin="round" stroke-miterlimit="1" stroke-width="1" points="895.7591323852539,213.13027954101562 734.260009765625,359.71177673339844 953.2353210449219,363.2627716064453" style="fill:#ffa045;stroke:#ffa045;"></polygon><polygon stroke-linejoin="round" stroke-miterlimit="1" stroke-width="1" points="814.8350219726562,214.79400634765625 734.260009765625,359.71177673339844 895.7591323852539,213.13027954101562" style="fill:#ffa045;stroke:#ffa045;"></polygon><polygon stroke-linejoin="round" stroke-miterlimit="1" stroke-width="1" points="731.10791015625,40.61846923828125 814.8350219726562,214.79400634765625 895.7591323852539,213.13027954101562" style="fill:#ff9345;stroke:#ff9345;"></polygon><polygon stroke-linejoin="round" stroke-miterlimit="1" stroke-width="1" points="775.4794311523438,64.11050415039062 814.8350219726562,214.79400634765625 731.10791015625,40.61846923828125" style="fill:#5b0045;stroke:#5b0045;"></polygon><polygon stroke-linejoin="round" stroke-miterlimit="1" stroke-width="1" points="889.1317596435547,-110.76861572265625 775.4794311523438,64.11050415039062 731.10791015625,40.61846923828125" style="fill:#5b0045;stroke:#5b0045;"></polygon><polygon stroke-linejoin="round" stroke-miterlimit="1" stroke-width="1" points="654.7312316894531,-114.9793701171875 775.4794311523438,64.11050415039062 889.1317596435547,-110.76861572265625" style="fill:#f35145;stroke:#f35145;"></polygon><polygon stroke-linejoin="round" stroke-miterlimit="1" stroke-width="1" points="618.2117004394531,958.7749633789062 632.3197326660156,1093.0888671875 605.2484741210938,1111.7305297851562" style="fill:#5b0045;stroke:#5b0045;"></polygon><polygon stroke-linejoin="round" stroke-miterlimit="1" stroke-width="1" points="431.8363037109375,944.6079711914062 632.3197326660156,1093.0888671875 618.2117004394531,958.7749633789062" style="fill:#a42745;stroke:#a42745;"></polygon><polygon stroke-linejoin="round" stroke-miterlimit="1" stroke-width="1" points="741.9493713378906,790.2411499023438 431.8363037109375,944.6079711914062 618.2117004394531,958.7749633789062" style="fill:#a62845;stroke:#a62845;"></polygon><polygon stroke-linejoin="round" stroke-miterlimit="1" stroke-width="1" points="535.6213073730469,786.0628967285156 431.8363037109375,944.6079711914062 741.9493713378906,790.2411499023438" style="fill:#941f45;stroke:#941f45;"></polygon><polygon stroke-linejoin="round" stroke-miterlimit="1" stroke-width="1" points="804.7578430175781,635.8393402099609 535.6213073730469,786.0628967285156 741.9493713378906,790.2411499023438" style="fill:#a12645;stroke:#a12645;"></polygon><polygon stroke-linejoin="round" stroke-miterlimit="1" stroke-width="1" points="448.3212890625,656.2916717529297 535.6213073730469,786.0628967285156 804.7578430175781,635.8393402099609" style="fill:#b12e45;stroke:#b12e45;"></polygon><polygon stroke-linejoin="round" stroke-miterlimit="1" stroke-width="1" points="818.9219055175781,506.5714020729065 448.3212890625,656.2916717529297 804.7578430175781,635.8393402099609" style="fill:#d94445;stroke:#d94445;"></polygon><polygon stroke-linejoin="round" stroke-miterlimit="1" stroke-width="1" points="654.6485290527344,500.8684768676758 448.3212890625,656.2916717529297 818.9219055175781,506.5714020729065" style="fill:#c93b45;stroke:#c93b45;"></polygon><polygon stroke-linejoin="round" stroke-miterlimit="1" stroke-width="1" points="734.260009765625,359.71177673339844 654.6485290527344,500.8684768676758 818.9219055175781,506.5714020729065" style="fill:#ff5e45;stroke:#ff5e45;"></polygon><polygon stroke-linejoin="round" stroke-miterlimit="1" stroke-width="1" points="430.0618896484375,341.9105682373047 654.6485290527344,500.8684768676758 734.260009765625,359.71177673339844" style="fill:#ea4d45;stroke:#ea4d45;"></polygon><polygon stroke-linejoin="round" stroke-miterlimit="1" stroke-width="1" points="814.8350219726562,214.79400634765625 430.0618896484375,341.9105682373047 734.260009765625,359.71177673339844" style="fill:#ff6145;stroke:#ff6145;"></polygon><polygon stroke-linejoin="round" stroke-miterlimit="1" stroke-width="1" points="669.1845397949219,185.07394409179688 430.0618896484375,341.9105682373047 814.8350219726562,214.79400634765625" style="fill:#ff6345;stroke:#ff6345;"></polygon><polygon stroke-linejoin="round" stroke-miterlimit="1" stroke-width="1" points="775.4794311523438,64.11050415039062 669.1845397949219,185.07394409179688 814.8350219726562,214.79400634765625" style="fill:#ff8745;stroke:#ff8745;"></polygon><polygon stroke-linejoin="round" stroke-miterlimit="1" stroke-width="1" points="532.2337951660156,54.2108154296875 669.1845397949219,185.07394409179688 775.4794311523438,64.11050415039062" style="fill:#ec4e45;stroke:#ec4e45;"></polygon><polygon stroke-linejoin="round" stroke-miterlimit="1" stroke-width="1" points="654.7312316894531,-114.9793701171875 532.2337951660156,54.2108154296875 775.4794311523438,64.11050415039062" style="fill:#e84c45;stroke:#e84c45;"></polygon><polygon stroke-linejoin="round" stroke-miterlimit="1" stroke-width="1" points="630.2411804199219,-88.433349609375 532.2337951660156,54.2108154296875 654.7312316894531,-114.9793701171875" style="fill:#d74345;stroke:#d74345;"></polygon><polygon stroke-linejoin="round" stroke-miterlimit="1" stroke-width="1" points="431.8363037109375,944.6079711914062 381.37933349609375,1110.7186279296875 632.3197326660156,1093.0888671875" style="fill:#ab2b45;stroke:#ab2b45;"></polygon><polygon stroke-linejoin="round" stroke-miterlimit="1" stroke-width="1" points="335.2606201171875,935.9291687011719 381.37933349609375,1110.7186279296875 431.8363037109375,944.6079711914062" style="fill:#b83245;stroke:#b83245;"></polygon><polygon stroke-linejoin="round" stroke-miterlimit="1" stroke-width="1" points="535.6213073730469,786.0628967285156 335.2606201171875,935.9291687011719 431.8363037109375,944.6079711914062" style="fill:#8f1c45;stroke:#8f1c45;"></polygon><polygon stroke-linejoin="round" stroke-miterlimit="1" stroke-width="1" points="499.8070373535156,811.6231384277344 335.2606201171875,935.9291687011719 535.6213073730469,786.0628967285156" style="fill:#5d0245;stroke:#5d0245;"></polygon><polygon stroke-linejoin="round" stroke-miterlimit="1" stroke-width="1" points="448.3212890625,656.2916717529297 499.8070373535156,811.6231384277344 535.6213073730469,786.0628967285156" style="fill:#bc3445;stroke:#bc3445;"></polygon><polygon stroke-linejoin="round" stroke-miterlimit="1" stroke-width="1" points="286.4005126953125,635.1038970947266 499.8070373535156,811.6231384277344 448.3212890625,656.2916717529297" style="fill:#a72945;stroke:#a72945;"></polygon><polygon stroke-linejoin="round" stroke-miterlimit="1" stroke-width="1" points="654.6485290527344,500.8684768676758 286.4005126953125,635.1038970947266 448.3212890625,656.2916717529297" style="fill:#ae2d45;stroke:#ae2d45;"></polygon><polygon stroke-linejoin="round" stroke-miterlimit="1" stroke-width="1" points="282.3349609375,491.920729637146 286.4005126953125,635.1038970947266 654.6485290527344,500.8684768676758" style="fill:#af2d45;stroke:#af2d45;"></polygon><polygon stroke-linejoin="round" stroke-miterlimit="1" stroke-width="1" points="430.0618896484375,341.9105682373047 282.3349609375,491.920729637146 654.6485290527344,500.8684768676758" style="fill:#b93245;stroke:#b93245;"></polygon><polygon stroke-linejoin="round" stroke-miterlimit="1" stroke-width="1" points="363.97174072265625,356.34564208984375 282.3349609375,491.920729637146 430.0618896484375,341.9105682373047" style="fill:#ce3e45;stroke:#ce3e45;"></polygon><polygon stroke-linejoin="round" stroke-miterlimit="1" stroke-width="1" points="669.1845397949219,185.07394409179688 363.97174072265625,356.34564208984375 430.0618896484375,341.9105682373047" style="fill:#f15045;stroke:#f15045;"></polygon><polygon stroke-linejoin="round" stroke-miterlimit="1" stroke-width="1" points="283.3372802734375,185.4010009765625 363.97174072265625,356.34564208984375 669.1845397949219,185.07394409179688" style="fill:#b83245;stroke:#b83245;"></polygon><polygon stroke-linejoin="round" stroke-miterlimit="1" stroke-width="1" points="532.2337951660156,54.2108154296875 283.3372802734375,185.4010009765625 669.1845397949219,185.07394409179688" style="fill:#c13745;stroke:#c13745;"></polygon><polygon stroke-linejoin="round" stroke-miterlimit="1" stroke-width="1" points="474.7913818359375,63.431549072265625 283.3372802734375,185.4010009765625 532.2337951660156,54.2108154296875" style="fill:#ff7e45;stroke:#ff7e45;"></polygon><polygon stroke-linejoin="round" stroke-miterlimit="1" stroke-width="1" points="630.2411804199219,-88.433349609375 474.7913818359375,63.431549072265625 532.2337951660156,54.2108154296875" style="fill:#ff7845;stroke:#ff7845;"></polygon><polygon stroke-linejoin="round" stroke-miterlimit="1" stroke-width="1" points="285.32415771484375,-111.30633544921875 474.7913818359375,63.431549072265625 630.2411804199219,-88.433349609375" style="fill:#b02e45;stroke:#b02e45;"></polygon><polygon stroke-linejoin="round" stroke-miterlimit="1" stroke-width="1" points="335.2606201171875,935.9291687011719 255.5517578125,1112.9482421875 381.37933349609375,1110.7186279296875" style="fill:#851745;stroke:#851745;"></polygon><polygon stroke-linejoin="round" stroke-miterlimit="1" stroke-width="1" points="186.539794921875,964.5591430664062 255.5517578125,1112.9482421875 335.2606201171875,935.9291687011719" style="fill:#871845;stroke:#871845;"></polygon><polygon stroke-linejoin="round" stroke-miterlimit="1" stroke-width="1" points="499.8070373535156,811.6231384277344 186.539794921875,964.5591430664062 335.2606201171875,935.9291687011719" style="fill:#941f45;stroke:#941f45;"></polygon><polygon stroke-linejoin="round" stroke-miterlimit="1" stroke-width="1" points="309.3778076171875,811.5863647460938 186.539794921875,964.5591430664062 499.8070373535156,811.6231384277344" style="fill:#a32745;stroke:#a32745;"></polygon><polygon stroke-linejoin="round" stroke-miterlimit="1" stroke-width="1" points="286.4005126953125,635.1038970947266 309.3778076171875,811.5863647460938 499.8070373535156,811.6231384277344" style="fill:#821545;stroke:#821545;"></polygon><polygon stroke-linejoin="round" stroke-miterlimit="1" stroke-width="1" points="130.223388671875,650.2176055908203 309.3778076171875,811.5863647460938 286.4005126953125,635.1038970947266" style="fill:#841645;stroke:#841645;"></polygon><polygon stroke-linejoin="round" stroke-miterlimit="1" stroke-width="1" points="282.3349609375,491.920729637146 130.223388671875,650.2176055908203 286.4005126953125,635.1038970947266" style="fill:#921e45;stroke:#921e45;"></polygon><polygon stroke-linejoin="round" stroke-miterlimit="1" stroke-width="1" points="277.17559814453125,485.8410005569458 130.223388671875,650.2176055908203 282.3349609375,491.920729637146" style="fill:#e24845;stroke:#e24845;"></polygon><polygon stroke-linejoin="round" stroke-miterlimit="1" stroke-width="1" points="363.97174072265625,356.34564208984375 277.17559814453125,485.8410005569458 282.3349609375,491.920729637146" style="fill:#ff6345;stroke:#ff6345;"></polygon><polygon stroke-linejoin="round" stroke-miterlimit="1" stroke-width="1" points="369.99688720703125,338.1553955078125 277.17559814453125,485.8410005569458 363.97174072265625,356.34564208984375" style="fill:#ff5f45;stroke:#ff5f45;"></polygon><polygon stroke-linejoin="round" stroke-miterlimit="1" stroke-width="1" points="283.3372802734375,185.4010009765625 369.99688720703125,338.1553955078125 363.97174072265625,356.34564208984375" style="fill:#680745;stroke:#680745;"></polygon><polygon stroke-linejoin="round" stroke-miterlimit="1" stroke-width="1" points="290.16314697265625,204.35812377929688 369.99688720703125,338.1553955078125 283.3372802734375,185.4010009765625" style="fill:#ffe745;stroke:#ffe745;"></polygon><polygon stroke-linejoin="round" stroke-miterlimit="1" stroke-width="1" points="474.7913818359375,63.431549072265625 290.16314697265625,204.35812377929688 283.3372802734375,185.4010009765625" style="fill:#b83245;stroke:#b83245;"></polygon><polygon stroke-linejoin="round" stroke-miterlimit="1" stroke-width="1" points="325.76312255859375,57.495086669921875 290.16314697265625,204.35812377929688 474.7913818359375,63.431549072265625" style="fill:#8d1b45;stroke:#8d1b45;"></polygon><polygon stroke-linejoin="round" stroke-miterlimit="1" stroke-width="1" points="285.32415771484375,-111.30633544921875 325.76312255859375,57.495086669921875 474.7913818359375,63.431549072265625" style="fill:#9b2345;stroke:#9b2345;"></polygon><polygon stroke-linejoin="round" stroke-miterlimit="1" stroke-width="1" points="158.33819580078125,-85.85748291015625 325.76312255859375,57.495086669921875 285.32415771484375,-111.30633544921875" style="fill:#b63145;stroke:#b63145;"></polygon><polygon stroke-linejoin="round" stroke-miterlimit="1" stroke-width="1" points="186.539794921875,964.5591430664062 -8.959228515625,1101.4737548828125 255.5517578125,1112.9482421875" style="fill:#7c1245;stroke:#7c1245;"></polygon><polygon stroke-linejoin="round" stroke-miterlimit="1" stroke-width="1" points="81.1219482421875,945.6369018554688 -8.959228515625,1101.4737548828125 186.539794921875,964.5591430664062" style="fill:#801445;stroke:#801445;"></polygon><polygon stroke-linejoin="round" stroke-miterlimit="1" stroke-width="1" points="309.3778076171875,811.5863647460938 81.1219482421875,945.6369018554688 186.539794921875,964.5591430664062" style="fill:#992145;stroke:#992145;"></polygon><polygon stroke-linejoin="round" stroke-miterlimit="1" stroke-width="1" points="100.09979248046875,813.9752807617188 81.1219482421875,945.6369018554688 309.3778076171875,811.5863647460938" style="fill:#921e45;stroke:#921e45;"></polygon><polygon stroke-linejoin="round" stroke-miterlimit="1" stroke-width="1" points="130.223388671875,650.2176055908203 100.09979248046875,813.9752807617188 309.3778076171875,811.5863647460938" style="fill:#9b2345;stroke:#9b2345;"></polygon><polygon stroke-linejoin="round" stroke-miterlimit="1" stroke-width="1" points="3.34124755859375,662.1557159423828 100.09979248046875,813.9752807617188 130.223388671875,650.2176055908203" style="fill:#ad2c45;stroke:#ad2c45;"></polygon><polygon stroke-linejoin="round" stroke-miterlimit="1" stroke-width="1" points="277.17559814453125,485.8410005569458 3.34124755859375,662.1557159423828 130.223388671875,650.2176055908203" style="fill:#a52845;stroke:#a52845;"></polygon><polygon stroke-linejoin="round" stroke-miterlimit="1" stroke-width="1" points="-14.16094970703125,494.07847785949707 3.34124755859375,662.1557159423828 277.17559814453125,485.8410005569458" style="fill:#951f45;stroke:#951f45;"></polygon><polygon stroke-linejoin="round" stroke-miterlimit="1" stroke-width="1" points="369.99688720703125,338.1553955078125 -14.16094970703125,494.07847785949707 277.17559814453125,485.8410005569458" style="fill:#992145;stroke:#992145;"></polygon><polygon stroke-linejoin="round" stroke-miterlimit="1" stroke-width="1" points="-6.36724853515625,352.2733612060547 -14.16094970703125,494.07847785949707 369.99688720703125,338.1553955078125" style="fill:#8f1c45;stroke:#8f1c45;"></polygon><polygon stroke-linejoin="round" stroke-miterlimit="1" stroke-width="1" points="290.16314697265625,204.35812377929688 -6.36724853515625,352.2733612060547 369.99688720703125,338.1553955078125" style="fill:#951f45;stroke:#951f45;"></polygon><polygon stroke-linejoin="round" stroke-miterlimit="1" stroke-width="1" points="114.625732421875,208.72048950195312 -6.36724853515625,352.2733612060547 290.16314697265625,204.35812377929688" style="fill:#962045;stroke:#962045;"></polygon><polygon stroke-linejoin="round" stroke-miterlimit="1" stroke-width="1" points="325.76312255859375,57.495086669921875 114.625732421875,208.72048950195312 290.16314697265625,204.35812377929688" style="fill:#9a2245;stroke:#9a2245;"></polygon><polygon stroke-linejoin="round" stroke-miterlimit="1" stroke-width="1" points="109.14019775390625,37.6533203125 114.625732421875,208.72048950195312 325.76312255859375,57.495086669921875" style="fill:#a72945;stroke:#a72945;"></polygon><polygon stroke-linejoin="round" stroke-miterlimit="1" stroke-width="1" points="158.33819580078125,-85.85748291015625 109.14019775390625,37.6533203125 325.76312255859375,57.495086669921875" style="fill:#ac2c45;stroke:#ac2c45;"></polygon><polygon stroke-linejoin="round" stroke-miterlimit="1" stroke-width="1" points="124.82403564453125,-85.0008544921875 109.14019775390625,37.6533203125 158.33819580078125,-85.85748291015625" style="fill:#5b0045;stroke:#5b0045;"></polygon><polygon stroke-linejoin="round" stroke-miterlimit="1" stroke-width="1" points="81.1219482421875,945.6369018554688 6.15728759765625,1088.825927734375 -8.959228515625,1101.4737548828125" style="fill:#5b0045;stroke:#5b0045;"></polygon><polygon stroke-linejoin="round" stroke-miterlimit="1" stroke-width="1" points="-169.693603515625,941.3303527832031 6.15728759765625,1088.825927734375 81.1219482421875,945.6369018554688" style="fill:#911d45;stroke:#911d45;"></polygon><polygon stroke-linejoin="round" stroke-miterlimit="1" stroke-width="1" points="100.09979248046875,813.9752807617188 -169.693603515625,941.3303527832031 81.1219482421875,945.6369018554688" style="fill:#921e45;stroke:#921e45;"></polygon><polygon stroke-linejoin="round" stroke-miterlimit="1" stroke-width="1" points="-142.720947265625,788.8981018066406 -169.693603515625,941.3303527832031 100.09979248046875,813.9752807617188" style="fill:#911d45;stroke:#911d45;"></polygon><polygon stroke-linejoin="round" stroke-miterlimit="1" stroke-width="1" points="3.34124755859375,662.1557159423828 -142.720947265625,788.8981018066406 100.09979248046875,813.9752807617188" style="fill:#911d45;stroke:#911d45;"></polygon><polygon stroke-linejoin="round" stroke-miterlimit="1" stroke-width="1" points="-160.46435546875,641.2217559814453 -142.720947265625,788.8981018066406 3.34124755859375,662.1557159423828" style="fill:#881945;stroke:#881945;"></polygon><polygon stroke-linejoin="round" stroke-miterlimit="1" stroke-width="1" points="-14.16094970703125,494.07847785949707 -160.46435546875,641.2217559814453 3.34124755859375,662.1557159423828" style="fill:#941f45;stroke:#941f45;"></polygon><polygon stroke-linejoin="round" stroke-miterlimit="1" stroke-width="1" points="35.3060302734375,486.64693546295166 -160.46435546875,641.2217559814453 -14.16094970703125,494.07847785949707" style="fill:#5b0045;stroke:#5b0045;"></polygon><polygon stroke-linejoin="round" stroke-miterlimit="1" stroke-width="1" points="-6.36724853515625,352.2733612060547 35.3060302734375,486.64693546295166 -14.16094970703125,494.07847785949707" style="fill:#5b0045;stroke:#5b0045;"></polygon><polygon stroke-linejoin="round" stroke-miterlimit="1" stroke-width="1" points="-104.421875,361.4933166503906 35.3060302734375,486.64693546295166 -6.36724853515625,352.2733612060547" style="fill:#b22f45;stroke:#b22f45;"></polygon><polygon stroke-linejoin="round" stroke-miterlimit="1" stroke-width="1" points="114.625732421875,208.72048950195312 -104.421875,361.4933166503906 -6.36724853515625,352.2733612060547" style="fill:#b43045;stroke:#b43045;"></polygon><polygon stroke-linejoin="round" stroke-miterlimit="1" stroke-width="1" points="-28.6431884765625,188.19668579101562 -104.421875,361.4933166503906 114.625732421875,208.72048950195312" style="fill:#7e1345;stroke:#7e1345;"></polygon><polygon stroke-linejoin="round" stroke-miterlimit="1" stroke-width="1" points="109.14019775390625,37.6533203125 -28.6431884765625,188.19668579101562 114.625732421875,208.72048950195312" style="fill:#7f1445;stroke:#7f1445;"></polygon><polygon stroke-linejoin="round" stroke-miterlimit="1" stroke-width="1" points="49.50390625,38.03118896484375 -28.6431884765625,188.19668579101562 109.14019775390625,37.6533203125" style="fill:#962045;stroke:#962045;"></polygon><polygon stroke-linejoin="round" stroke-miterlimit="1" stroke-width="1" points="124.82403564453125,-85.0008544921875 49.50390625,38.03118896484375 109.14019775390625,37.6533203125" style="fill:#931e45;stroke:#931e45;"></polygon><polygon stroke-linejoin="round" stroke-miterlimit="1" stroke-width="1" points="68.555908203125,-89.70135498046875 49.50390625,38.03118896484375 124.82403564453125,-85.0008544921875" style="fill:#a22645;stroke:#a22645;"></polygon><polygon stroke-linejoin="round" stroke-miterlimit="1" stroke-width="1" points="-169.693603515625,941.3303527832031 -96.686767578125,1114.57080078125 6.15728759765625,1088.825927734375" style="fill:#821545;stroke:#821545;"></polygon><polygon stroke-linejoin="round" stroke-miterlimit="1" stroke-width="1" points="-202.126953125,940.8280029296875 -96.686767578125,1114.57080078125 -169.693603515625,941.3303527832031" style="fill:#5b0045;stroke:#5b0045;"></polygon><polygon stroke-linejoin="round" stroke-miterlimit="1" stroke-width="1" points="-142.720947265625,788.8981018066406 -202.126953125,940.8280029296875 -169.693603515625,941.3303527832031" style="fill:#5b0045;stroke:#5b0045;"></polygon><polygon stroke-linejoin="round" stroke-miterlimit="1" stroke-width="1" points="-96.109130859375,812.3568115234375 -202.126953125,940.8280029296875 -142.720947265625,788.8981018066406" style="fill:#5b0045;stroke:#5b0045;"></polygon><polygon stroke-linejoin="round" stroke-miterlimit="1" stroke-width="1" points="-160.46435546875,641.2217559814453 -96.109130859375,812.3568115234375 -142.720947265625,788.8981018066406" style="fill:#5b0045;stroke:#5b0045;"></polygon><polygon stroke-linejoin="round" stroke-miterlimit="1" stroke-width="1" points="-186.66650390625,664.9013366699219 -96.109130859375,812.3568115234375 -160.46435546875,641.2217559814453" style="fill:#5b0045;stroke:#5b0045;"></polygon><polygon stroke-linejoin="round" stroke-miterlimit="1" stroke-width="1" points="35.3060302734375,486.64693546295166 -186.66650390625,664.9013366699219 -160.46435546875,641.2217559814453" style="fill:#5b0045;stroke:#5b0045;"></polygon><polygon stroke-linejoin="round" stroke-miterlimit="1" stroke-width="1" points="-156.8970947265625,496.1660187244415 -186.66650390625,664.9013366699219 35.3060302734375,486.64693546295166" style="fill:#8f1c45;stroke:#8f1c45;"></polygon><polygon stroke-linejoin="round" stroke-miterlimit="1" stroke-width="1" points="-104.421875,361.4933166503906 -156.8970947265625,496.1660187244415 35.3060302734375,486.64693546295166" style="fill:#972045;stroke:#972045;"></polygon><polygon stroke-linejoin="round" stroke-miterlimit="1" stroke-width="1" points="-318.26611328125,364.47235107421875 -156.8970947265625,496.1660187244415 -104.421875,361.4933166503906" style="fill:#811545;stroke:#811545;"></polygon><polygon stroke-linejoin="round" stroke-miterlimit="1" stroke-width="1" points="-28.6431884765625,188.19668579101562 -318.26611328125,364.47235107421875 -104.421875,361.4933166503906" style="fill:#831645;stroke:#831645;"></polygon><polygon stroke-linejoin="round" stroke-miterlimit="1" stroke-width="1" points="-180.736083984375,214.941162109375 -318.26611328125,364.47235107421875 -28.6431884765625,188.19668579101562" style="fill:#921e45;stroke:#921e45;"></polygon><polygon stroke-linejoin="round" stroke-miterlimit="1" stroke-width="1" points="49.50390625,38.03118896484375 -180.736083984375,214.941162109375 -28.6431884765625,188.19668579101562" style="fill:#992145;stroke:#992145;"></polygon><polygon stroke-linejoin="round" stroke-miterlimit="1" stroke-width="1" points="-175.9407958984375,35 -180.736083984375,214.941162109375 49.50390625,38.03118896484375" style="fill:#8a1a45;stroke:#8a1a45;"></polygon><polygon stroke-linejoin="round" stroke-miterlimit="1" stroke-width="1" points="68.555908203125,-89.70135498046875 -175.9407958984375,35 49.50390625,38.03118896484375" style="fill:#8c1b45;stroke:#8c1b45;"></polygon><polygon stroke-linejoin="round" stroke-miterlimit="1" stroke-width="1" points="-318.826904296875,-88.4903564453125 -175.9407958984375,35 68.555908203125,-89.70135498046875" style="fill:#9c2345;stroke:#9c2345;"></polygon></svg>